<svg id="Layer_1" data-name="Layer 1" xmlns="http://www.w3.org/2000/svg" xmlns:xlink="http://www.w3.org/1999/xlink" viewBox="0 0 280 280"><defs><style>.cls-1,.cls-2{fill:none;}.cls-2{stroke:#de59ca;stroke-miterlimit:10;stroke-width:20px;}.cls-3{fill:#8d59ca;}.cls-4{fill:#fff;}.cls-5{fill:#de59ca;}.cls-6{clip-path:url(#clip-path);}</style><clipPath id="clip-path" transform="translate(-110 -110)"><rect class="cls-1" x="255.77" y="187.65" width="80.23" height="112.92"/></clipPath></defs><circle class="cls-2" cx="140" cy="140" r="130"/><circle class="cls-3" cx="140" cy="140" r="120"/><polyline class="cls-4" points="54.72 115.95 112.14 82.8 169.57 115.95 169.57 90.24 112.14 57.08 54.72 90.24"/><path class="cls-5" d="M222.15,167.08" transform="translate(-110 -110)"/><path class="cls-4" d="M278.58,332.76,221.15,299.6V273.89L278.58,307,336,273.89V299.6Zm0,0" transform="translate(-110 -110)"/><polyline class="cls-4" points="54.72 122.86 112.14 89.71 134.41 102.56 76.99 135.72 76.99 202.03 54.72 189.18"/><path class="cls-4" d="M307.82,183.76,250.4,150.61l-22.27,12.86,57.42,33.15v66.31l22.27-12.86Zm0,0" transform="translate(-110 -110)"/><path class="cls-4" d="M193.09,315.86V249.55l22.27-12.86V303l57.43,33.16L250.52,349Zm0,0" transform="translate(-110 -110)"/><g class="cls-6"><path class="cls-4" d="M336,267V200.67l-22.27-12.86v66.31L256.3,287.28l22.28,12.86Zm0,0" transform="translate(-110 -110)"/></g></svg>